<svg xmlns="http://www.w3.org/2000/svg" xmlns:xlink="http://www.w3.org/1999/xlink" width="106" zoomAndPan="magnify" viewBox="0 0 79.5 47.25" height="63" preserveAspectRatio="xMidYMid meet" version="1.0"><defs><filter x="0%" y="0%" width="100%" height="100%" id="c0e4dcda4c"><feColorMatrix values="0 0 0 0 1 0 0 0 0 1 0 0 0 0 1 0 0 0 1 0" color-interpolation-filters="sRGB"/></filter><clipPath id="09d9b27135"><path d="M 0.375 0.316406 L 46.175781 0.316406 L 46.175781 46.113281 L 0.375 46.113281 Z M 0.375 0.316406 " clip-rule="nonzero"/></clipPath><clipPath id="68e7990046"><path d="M 23.273438 0.316406 C 10.628906 0.316406 0.375 10.566406 0.375 23.214844 C 0.375 35.863281 10.628906 46.113281 23.273438 46.113281 C 35.921875 46.113281 46.175781 35.863281 46.175781 23.214844 C 46.175781 10.566406 35.921875 0.316406 23.273438 0.316406 Z M 23.273438 0.316406 " clip-rule="nonzero"/></clipPath><clipPath id="dc62cfd660"><path d="M 32.617188 0.316406 L 78.417969 0.316406 L 78.417969 46.113281 L 32.617188 46.113281 Z M 32.617188 0.316406 " clip-rule="nonzero"/></clipPath><clipPath id="75282933ad"><path d="M 55.519531 0.316406 C 42.871094 0.316406 32.617188 10.566406 32.617188 23.214844 C 32.617188 35.863281 42.871094 46.113281 55.519531 46.113281 C 68.164062 46.113281 78.417969 35.863281 78.417969 23.214844 C 78.417969 10.566406 68.164062 0.316406 55.519531 0.316406 Z M 55.519531 0.316406 " clip-rule="nonzero"/></clipPath><clipPath id="b568e12dfe"><path d="M 0.375 0 L 59 0 L 59 46.511719 L 0.375 46.511719 Z M 0.375 0 " clip-rule="nonzero"/></clipPath><mask id="894d40e43a"><g filter="url(#c0e4dcda4c)"><rect x="-7.95" width="95.4" fill="#000000" y="-4.725" height="56.699999" fill-opacity="0.5"/></g></mask><clipPath id="c514fe0593"><path d="M 0.375 0.316406 L 46.175781 0.316406 L 46.175781 46.113281 L 0.375 46.113281 Z M 0.375 0.316406 " clip-rule="nonzero"/></clipPath><clipPath id="40e6a9a58d"><path d="M 23.273438 0.316406 C 10.628906 0.316406 0.375 10.566406 0.375 23.214844 C 0.375 35.863281 10.628906 46.113281 23.273438 46.113281 C 35.921875 46.113281 46.175781 35.863281 46.175781 23.214844 C 46.175781 10.566406 35.921875 0.316406 23.273438 0.316406 Z M 23.273438 0.316406 " clip-rule="nonzero"/></clipPath><clipPath id="05394d29a7"><rect x="0" width="59" y="0" height="47"/></clipPath></defs><g clip-path="url(#09d9b27135)"><g clip-path="url(#68e7990046)"><path fill="#ffffff" d="M 0.375 0.316406 L 46.175781 0.316406 L 46.175781 46.113281 L 0.375 46.113281 Z M 0.375 0.316406 " fill-opacity="1" fill-rule="nonzero"/><path stroke-linecap="butt" transform="matrix(0.141359, 0, 0, 0.141359, 0.375, 0.314632)" fill="none" stroke-linejoin="miter" d="M 161.988317 0.0125527 C 72.538267 0.0125527 -0.00000294759 72.523189 -0.00000294759 162.000873 C -0.00000294759 251.478556 72.538267 323.989193 161.988317 323.989193 C 251.466001 323.989193 324.004271 251.478556 324.004271 162.000873 C 324.004271 72.523189 251.466001 0.0125527 161.988317 0.0125527 Z M 161.988317 0.0125527 " stroke="#000000" stroke-width="42.044819" stroke-opacity="1" stroke-miterlimit="4"/></g></g><g clip-path="url(#dc62cfd660)"><g clip-path="url(#75282933ad)"><path fill="#ec0054" d="M 32.617188 0.316406 L 78.417969 0.316406 L 78.417969 46.113281 L 32.617188 46.113281 Z M 32.617188 0.316406 " fill-opacity="1" fill-rule="nonzero"/><path stroke-linecap="butt" transform="matrix(0.141359, 0, 0, 0.141359, 32.618322, 0.314632)" fill="none" stroke-linejoin="miter" d="M 162.007928 0.0125527 C 72.530245 0.0125527 -0.00802534 72.523189 -0.00802534 162.000873 C -0.00802534 251.478556 72.530245 323.989193 162.007928 323.989193 C 251.457978 323.989193 323.996249 251.478556 323.996249 162.000873 C 323.996249 72.523189 251.457978 0.0125527 162.007928 0.0125527 Z M 162.007928 0.0125527 " stroke="#000000" stroke-width="42.044819" stroke-opacity="1" stroke-miterlimit="4"/></g></g><g clip-path="url(#b568e12dfe)"><g mask="url(#894d40e43a)"><g transform="matrix(1, 0, 0, 1, 0.000000000000000056, 0.000000000000000899)"><g clip-path="url(#05394d29a7)"><g clip-path="url(#c514fe0593)"><g clip-path="url(#40e6a9a58d)"><path fill="#ffffff" d="M 0.375 0.316406 L 46.175781 0.316406 L 46.175781 46.113281 L 0.375 46.113281 Z M 0.375 0.316406 " fill-opacity="1" fill-rule="nonzero"/><path stroke-linecap="butt" transform="matrix(0.141359, 0, 0, 0.141359, 0.375, 0.314632)" fill="none" stroke-linejoin="miter" d="M 161.988317 0.0125527 C 72.538267 0.0125527 -0.00000294759 72.523189 -0.00000294759 162.000873 C -0.00000294759 251.478556 72.538267 323.989193 161.988317 323.989193 C 251.466001 323.989193 324.004271 251.478556 324.004271 162.000873 C 324.004271 72.523189 251.466001 0.0125527 161.988317 0.0125527 Z M 161.988317 0.0125527 " stroke="#000000" stroke-width="42.044819" stroke-opacity="1" stroke-miterlimit="4"/></g></g></g></g></g></g></svg>